<svg width="100" height="100" viewBox="0 0 100 100" fill="none" xmlns="http://www.w3.org/2000/svg">
<path d="M90.1874 37.8753H86.9361C85.3166 37.8753 83.9754 36.984 83.3553 35.4842C82.7353 33.9844 83.0488 32.4074 84.1961 31.2601L86.4914 28.9629C87.5917 27.8704 88.1924 26.4133 88.1967 24.8557C88.1967 23.3054 87.5924 21.8409 86.4957 20.7405L78.2524 12.5052C75.9854 10.2424 72.2963 10.2424 70.0337 12.5052L67.7399 14.8032C66.5927 15.954 65.0077 16.2562 63.5202 15.644C62.0204 15.0238 61.1255 13.6834 61.1255 12.0638V8.81251C61.1255 5.60813 58.5173 3 55.3129 3H43.6877C40.4826 3 37.8752 5.60813 37.8752 8.81251V12.0638C37.8752 13.6833 36.9803 15.0245 35.4804 15.6445C33.9806 16.2683 32.4073 15.9546 31.2608 14.8038L28.9627 12.505C26.6957 10.2422 23.011 10.2422 20.744 12.505L12.5094 20.7433C11.409 21.84 10.804 23.3052 10.804 24.8592C10.804 26.4131 11.4083 27.8703 12.505 28.9664L14.7988 31.2644C15.946 32.4116 16.2597 33.9886 15.6396 35.4885C15.0202 36.9876 13.6833 37.8753 12.0638 37.8753H8.81253C5.60815 37.8753 3 40.4827 3 43.6878V55.313C3 58.5173 5.60815 61.1255 8.81253 61.1255H12.0638C13.6833 61.1255 15.0245 62.0167 15.6446 63.5165C16.2646 65.0163 15.9511 66.5933 14.8038 67.7406L12.5093 70.0379C11.4089 71.1303 10.8083 72.5875 10.8039 74.1451C10.8039 75.6954 11.4082 77.1599 12.505 78.2602L20.7433 86.4985C23.0103 88.7613 26.6994 88.7613 28.962 86.4985L31.2558 84.2005C32.403 83.0497 33.9835 82.7432 35.4754 83.3597C36.9796 83.9762 37.8752 85.3168 37.8752 86.937V90.1875C37.8752 93.3919 40.4833 96 43.6877 96H55.3129C58.5173 96 61.1255 93.3919 61.1255 90.1875V86.9362C61.1255 85.3167 62.0203 83.9755 63.5202 83.3555C65.0158 82.7274 66.5934 83.0454 67.7399 84.1962L70.0379 86.4943C72.3086 88.7613 75.9941 88.757 78.2567 86.4943L86.495 78.256C87.5953 77.1592 88.2003 75.6948 88.196 74.1408C88.196 72.5869 87.5917 71.1297 86.495 70.0336L84.2012 67.7356C83.054 66.5884 82.7403 65.0114 83.3604 63.5115C83.9798 62.0124 85.3167 61.1255 86.9369 61.1255H90.1875C93.3919 61.1255 96 58.5173 96 55.313V43.6878C96 40.4827 93.3925 37.8753 90.1874 37.8753ZM92.1249 55.313C92.1249 56.3787 91.2567 57.2505 90.1874 57.2505H86.9361C83.7432 57.2505 80.9995 59.0834 79.7751 62.0318C78.5543 64.9846 79.1975 68.22 81.4566 70.4792L83.7547 72.7772C84.1188 73.1457 84.3207 73.6296 84.3207 74.1451C84.3207 74.6643 84.1195 75.1525 83.7547 75.5166L75.5164 83.7549C74.7643 84.5026 73.5327 84.5106 72.777 83.7549L70.4832 81.4568C68.2276 79.2013 64.9957 78.5545 62.0395 79.7753C59.0822 81.0004 57.2501 83.7433 57.2501 86.937V90.1875C57.2501 91.2533 56.382 92.125 55.3126 92.125H43.6874C42.618 92.125 41.7499 91.2533 41.7499 90.1875V86.9363C41.7499 83.7433 39.9169 80.9997 36.964 79.7753C35.9762 79.3686 34.9529 79.1667 33.9492 79.1667C31.9534 79.1667 30.0201 79.9534 28.5203 81.4568L26.2265 83.7548C25.4708 84.5026 24.2384 84.5026 23.4829 83.7548L15.2446 75.5165C14.8761 75.1481 14.6785 74.6599 14.6785 74.1451C14.6785 73.6295 14.8797 73.1457 15.2446 72.7772L17.5383 70.4792C19.7974 68.2201 20.4407 64.9845 19.2199 62.0318C17.9998 59.0825 15.2561 57.2504 12.0631 57.2504H8.81187C7.74251 57.2504 6.87436 56.3779 6.87436 55.3129V43.6877C6.87436 42.622 7.74253 41.7502 8.81187 41.7502H12.0631C15.2561 41.7502 17.9997 39.9172 19.2241 36.9689C20.4449 34.0161 19.8017 30.7807 17.5426 28.5214L15.2446 26.2227C14.8804 25.8542 14.6785 25.3704 14.6785 24.8548C14.6785 24.3356 14.8797 23.8475 15.2446 23.4833L23.4864 15.2451C24.2385 14.4973 25.47 14.4894 26.2258 15.2451L28.5195 17.5431C30.7786 19.8022 34.0105 20.4418 36.9633 19.2246C39.9168 18.0003 41.7499 15.2566 41.7499 12.0637V8.81241C41.7499 7.74668 42.6173 6.87491 43.6874 6.87491H55.3126C56.382 6.87491 57.2501 7.74669 57.2501 8.81241V12.0637C57.2501 15.2566 59.0831 18.0002 62.0359 19.2246C64.9924 20.4411 68.2241 19.8022 70.4797 17.5431L72.7735 15.2451C73.5292 14.4973 74.7616 14.4973 75.5171 15.2451L83.7554 23.4833C84.1239 23.8518 84.3215 24.34 84.3215 24.8548C84.3215 25.3704 84.1203 25.8542 83.7554 26.2227L81.4616 28.5207C79.2026 30.7798 78.5592 34.0153 79.7801 36.9681C81.0001 39.9174 83.7432 41.7502 86.9368 41.7502H90.1874C91.2567 41.7502 92.1249 42.622 92.1249 43.6877V55.313Z" fill="#010A1B" stroke="#010A1B" stroke-width="2"/>
<path d="M48.9833 22.6333C34.4534 22.6333 22.6333 34.4568 22.6333 48.9833C22.6333 63.5098 34.4525 75.3333 48.9833 75.3333C63.5141 75.3333 75.3333 63.5098 75.3333 48.9833C75.3326 34.4568 63.5134 22.6333 48.9833 22.6333ZM48.9833 71.5659C36.5281 71.5659 26.3989 61.4369 26.3989 48.9815C26.3989 36.5263 36.5279 26.3971 48.9833 26.3971C61.4385 26.3971 71.5677 36.5261 71.5677 48.9815C71.567 61.4375 61.438 71.5659 48.9833 71.5659Z" fill="#010A1B" stroke="#010A1B" stroke-width="2"/>
</svg>
