<svg width="46" height="41" viewBox="0 0 46 41" fill="none" xmlns="http://www.w3.org/2000/svg">
<path d="M22.9576 32.1021C26.2076 28.793 29.4576 25.8299 29.4576 22.1748C29.4576 18.5197 26.5475 15.5566 22.9576 15.5566C19.3678 15.5566 16.4576 18.5197 16.4576 22.1748C16.4576 25.8299 19.7076 28.793 22.9576 32.1021Z" stroke="#010A1B" stroke-width="2.5" stroke-linecap="round" stroke-linejoin="round"/>
<path d="M22.9576 25.0113C24.5894 25.0113 25.9122 23.6885 25.9122 22.0567C25.9122 20.425 24.5894 19.1022 22.9576 19.1022C21.3258 19.1022 20.0031 20.425 20.0031 22.0567C20.0031 23.6885 21.3258 25.0113 22.9576 25.0113Z" stroke="#010A1B" stroke-width="2.5" stroke-linecap="round" stroke-linejoin="round"/>
<path d="M20.3718 1.97852C21.5318 0.00720833 24.3836 0.00716758 25.5436 1.97852L44.9958 35.0352C46.1724 37.035 44.7301 39.5565 42.4099 39.5566H3.50555C1.18515 39.5566 -0.257073 37.035 0.919617 35.0352L11.2692 17.4443C11.9874 17.3187 12.3013 17.3933 12.4567 17.4834C12.5951 17.5638 12.8096 17.7748 13.0466 18.3691L2.64325 36.0498C2.25142 36.7164 2.73223 37.5566 3.50555 37.5566H42.4099C43.1831 37.5565 43.6639 36.7163 43.2722 36.0498L23.82 2.99316C23.4333 2.33606 22.4821 2.33609 22.0954 2.99316L15.8102 13.6729C15.2069 13.7386 14.9365 13.6544 14.8102 13.5771C14.6592 13.4845 14.4354 13.2349 14.195 12.4727L20.3718 1.97852Z" fill="#010A1B"/>
<path d="M20.3718 1.97852L20.8027 2.23214L20.8027 2.2321L20.3718 1.97852ZM25.5436 1.97852L25.9746 1.72494L25.9746 1.72494L25.5436 1.97852ZM44.9958 35.0352L45.4267 34.7816L45.4267 34.7816L44.9958 35.0352ZM42.4099 39.5566L42.4099 40.0566L42.4099 40.0566L42.4099 39.5566ZM0.919617 35.0352L1.35056 35.2887L1.35056 35.2887L0.919617 35.0352ZM11.2692 17.4443L11.1831 16.9518L10.9555 16.9916L10.8383 17.1908L11.2692 17.4443ZM12.4567 17.4834L12.7078 17.051L12.7076 17.0509L12.4567 17.4834ZM13.0466 18.3691L13.4775 18.6227L13.6017 18.4116L13.511 18.184L13.0466 18.3691ZM2.64325 36.0498L2.21231 35.7962L2.21221 35.7964L2.64325 36.0498ZM42.4099 37.5566L42.4099 38.0566L42.4099 38.0566L42.4099 37.5566ZM43.2722 36.0498L43.7032 35.7965L43.7031 35.7962L43.2722 36.0498ZM23.82 2.99316L24.2509 2.73959L24.2509 2.73958L23.82 2.99316ZM22.0954 2.99316L21.6645 2.73956L21.6645 2.73956L22.0954 2.99316ZM15.8102 13.6729L15.8644 14.1699L16.1139 14.1427L16.2412 13.9265L15.8102 13.6729ZM14.8102 13.5771L14.5488 14.0034L14.5493 14.0036L14.8102 13.5771ZM14.195 12.4727L13.7641 12.219L13.6512 12.4108L13.7182 12.6231L14.195 12.4727ZM20.3718 1.97852L20.8027 2.2321C21.7694 0.589333 24.146 0.58932 25.1127 2.2321L25.5436 1.97852L25.9746 1.72494C24.6212 -0.574985 21.2943 -0.574916 19.9408 1.72493L20.3718 1.97852ZM25.5436 1.97852L25.1127 2.23209L44.5649 35.2887L44.9958 35.0352L45.4267 34.7816L25.9746 1.72494L25.5436 1.97852ZM44.9958 35.0352L44.5648 35.2887C45.5453 36.9551 44.3435 39.0565 42.4098 39.0566L42.4099 39.5566L42.4099 40.0566C45.1168 40.0565 46.7994 37.1148 45.4267 34.7816L44.9958 35.0352ZM42.4099 39.5566V39.0566H3.50555V39.5566V40.0566H42.4099V39.5566ZM3.50555 39.5566V39.0566C1.57183 39.0566 0.370013 36.9552 1.35056 35.2887L0.919617 35.0352L0.488677 34.7816C-0.884159 37.1148 0.798477 40.0566 3.50555 40.0566V39.5566ZM0.919617 35.0352L1.35056 35.2887L11.7002 17.6979L11.2692 17.4443L10.8383 17.1908L0.488672 34.7816L0.919617 35.0352ZM11.2692 17.4443L11.3554 17.9369C12.0376 17.8175 12.2054 17.9157 12.2059 17.9159L12.4567 17.4834L12.7076 17.0509C12.3973 16.8709 11.9372 16.8199 11.1831 16.9518L11.2692 17.4443ZM12.4567 17.4834L12.2056 17.9158C12.206 17.916 12.2154 17.9214 12.2329 17.9377C12.2507 17.9543 12.2774 17.9828 12.3115 18.0292C12.3805 18.1233 12.4746 18.2846 12.5821 18.5543L13.0466 18.3691L13.511 18.184C13.2557 17.5434 12.9857 17.2124 12.7078 17.051L12.4567 17.4834ZM13.0466 18.3691L12.6156 18.1156L2.21231 35.7962L2.64325 36.0498L3.07419 36.3034L13.4775 18.6227L13.0466 18.3691ZM2.64325 36.0498L2.21221 35.7964C1.6244 36.7964 2.34568 38.0566 3.50555 38.0566V37.5566V37.0566C3.11877 37.0566 2.87845 36.6363 3.07429 36.3032L2.64325 36.0498ZM3.50555 37.5566V38.0566H42.4099V37.5566V37.0566H3.50555V37.5566ZM42.4099 37.5566L42.4099 38.0566C43.5696 38.0565 44.2909 36.7964 43.7032 35.7965L43.2722 36.0498L42.8411 36.3031C43.0368 36.6362 42.7965 37.0566 42.4098 37.0566L42.4099 37.5566ZM43.2722 36.0498L43.7031 35.7962L24.2509 2.73959L23.82 2.99316L23.3891 3.24674L42.8412 36.3034L43.2722 36.0498ZM23.82 2.99316L24.2509 2.73958C23.6709 1.75389 22.2445 1.75399 21.6645 2.73956L22.0954 2.99316L22.5263 3.24677C22.7197 2.91819 23.1958 2.91824 23.3891 3.24674L23.82 2.99316ZM22.0954 2.99316L21.6645 2.73956L15.3793 13.4193L15.8102 13.6729L16.2412 13.9265L22.5263 3.24676L22.0954 2.99316ZM15.8102 13.6729L15.7561 13.1758C15.2005 13.2363 15.0609 13.1444 15.0712 13.1507L14.8102 13.5771L14.5493 14.0036C14.8121 14.1645 15.2133 14.2408 15.8644 14.1699L15.8102 13.6729ZM14.8102 13.5771L15.0717 13.1509C15.0794 13.1556 14.9025 13.0537 14.6719 12.3223L14.195 12.4727L13.7182 12.6231C13.9683 13.4161 14.239 13.8133 14.5488 14.0034L14.8102 13.5771ZM14.195 12.4727L14.6259 12.7263L20.8027 2.23214L20.3718 1.97852L19.9409 1.72489L13.7641 12.219L14.195 12.4727Z" fill="#010A1B"/>
</svg>
