<svg width="18" height="18" viewBox="0 0 18 18" fill="none" xmlns="http://www.w3.org/2000/svg">
<mask id="mask0_14_37" style="mask-type:luminance" maskUnits="userSpaceOnUse" x="0" y="0" width="18" height="18">
<path d="M17.2991 0H0V17.4364H17.2991V0Z" fill="white"/>
</mask>
<g mask="url(#mask0_14_37)">
<mask id="mask1_14_37" style="mask-type:luminance" maskUnits="userSpaceOnUse" x="0" y="0" width="18" height="18">
<path d="M16.9797 7.13307H8.91988V10.5015H13.5592C13.1267 12.6414 11.3182 13.8699 8.91988 13.8699C6.08911 13.8699 3.80879 11.5715 3.80879 8.71821C3.80879 5.86495 6.08911 3.56653 8.91988 3.56653C10.1387 3.56653 11.2395 4.00244 12.1045 4.71575L14.6207 2.17954C13.0874 0.832177 11.1216 -1.52588e-05 8.91988 -1.52588e-05C4.12332 -1.52588e-05 0.270325 3.88356 0.270325 8.71821C0.270325 13.5528 4.12332 17.4364 8.91988 17.4364C13.2447 17.4364 17.1763 14.2662 17.1763 8.71821C17.1763 8.20307 17.0977 7.64826 16.9797 7.13307Z" fill="white"/>
</mask>
<g mask="url(#mask1_14_37)">
<path d="M-0.516022 13.8699V3.56656L6.16773 8.71823L-0.516022 13.8699Z" fill="#FBBC05"/>
</g>
<mask id="mask2_14_37" style="mask-type:luminance" maskUnits="userSpaceOnUse" x="0" y="0" width="18" height="18">
<path d="M16.9797 7.13307H8.91988V10.5015H13.5592C13.1267 12.6414 11.3182 13.8699 8.91988 13.8699C6.08911 13.8699 3.80879 11.5715 3.80879 8.71821C3.80879 5.86495 6.08911 3.56653 8.91988 3.56653C10.1387 3.56653 11.2395 4.00244 12.1045 4.71575L14.6207 2.17954C13.0874 0.832177 11.1216 -1.52588e-05 8.91988 -1.52588e-05C4.12332 -1.52588e-05 0.270325 3.88356 0.270325 8.71821C0.270325 13.5528 4.12332 17.4364 8.91988 17.4364C13.2447 17.4364 17.1763 14.2662 17.1763 8.71821C17.1763 8.20307 17.0977 7.64826 16.9797 7.13307Z" fill="white"/>
</mask>
<g mask="url(#mask2_14_37)">
<path d="M-0.516022 3.56652L6.16773 8.71821L8.91986 6.30086L18.3558 4.75537V-0.792587H-0.516022V3.56652Z" fill="#EA4335"/>
</g>
<mask id="mask3_14_37" style="mask-type:luminance" maskUnits="userSpaceOnUse" x="0" y="0" width="18" height="18">
<path d="M16.9797 7.13307H8.91988V10.5015H13.5592C13.1267 12.6414 11.3182 13.8699 8.91988 13.8699C6.08911 13.8699 3.80879 11.5715 3.80879 8.71821C3.80879 5.86495 6.08911 3.56653 8.91988 3.56653C10.1387 3.56653 11.2395 4.00244 12.1045 4.71575L14.6207 2.17954C13.0874 0.832177 11.1216 -1.52588e-05 8.91988 -1.52588e-05C4.12332 -1.52588e-05 0.270325 3.88356 0.270325 8.71821C0.270325 13.5528 4.12332 17.4364 8.91988 17.4364C13.2447 17.4364 17.1763 14.2662 17.1763 8.71821C17.1763 8.20307 17.0977 7.64826 16.9797 7.13307Z" fill="white"/>
</mask>
<g mask="url(#mask3_14_37)">
<path d="M-0.516022 13.8699L11.2788 4.75537L14.3848 5.15166L18.3558 -0.792587V18.229H-0.516022V13.8699Z" fill="#34A853"/>
</g>
<mask id="mask4_14_37" style="mask-type:luminance" maskUnits="userSpaceOnUse" x="0" y="0" width="18" height="18">
<path d="M16.9797 7.13307H8.91988V10.5015H13.5592C13.1267 12.6414 11.3182 13.8699 8.91988 13.8699C6.08911 13.8699 3.80879 11.5715 3.80879 8.71821C3.80879 5.86495 6.08911 3.56653 8.91988 3.56653C10.1387 3.56653 11.2395 4.00244 12.1045 4.71575L14.6207 2.17954C13.0874 0.832177 11.1216 -1.52588e-05 8.91988 -1.52588e-05C4.12332 -1.52588e-05 0.270325 3.88356 0.270325 8.71821C0.270325 13.5528 4.12332 17.4364 8.91988 17.4364C13.2447 17.4364 17.1763 14.2662 17.1763 8.71821C17.1763 8.20307 17.0977 7.64826 16.9797 7.13307Z" fill="white"/>
</mask>
<g mask="url(#mask4_14_37)">
<path d="M18.3558 18.229L6.16773 8.71823L4.59509 7.52939L18.3558 3.56656V18.229Z" fill="#4285F4"/>
</g>
</g>
</svg>
