<svg width="33" height="43" viewBox="0 0 33 43" fill="none" xmlns="http://www.w3.org/2000/svg">
<path d="M24.1504 8.9043H31.6221L30.6055 7.88184L25.1758 2.41699L24.1504 1.38477V8.9043ZM0.599609 0.975586C0.598742 0.781102 0.742609 0.623292 0.925781 0.600586C0.930437 0.600609 0.935306 0.600335 0.94043 0.600586L0.956055 0.601562H24.2607L24.332 0.608398C24.402 0.622997 24.467 0.658498 24.5186 0.710938L24.5215 0.713867L32.2861 8.5293L32.2881 8.53125C32.3576 8.6005 32.3975 8.69456 32.3994 8.79297V42.0088L32.4004 42.0176C32.4019 42.12 32.3621 42.2175 32.292 42.2891C32.2223 42.3603 32.1275 42.4004 32.0293 42.4004C31.9307 42.4003 31.8365 42.3604 31.7676 42.29L31.7666 42.2891C31.6963 42.2171 31.6567 42.1193 31.6582 42.0176H31.6592V9.6582H23.7793C23.5785 9.65813 23.4084 9.49337 23.4082 9.28125V1.35449H1.34082V41.6328H26.0244C26.0978 41.6317 26.1696 41.6524 26.2305 41.6924L26.2881 41.7393C26.3592 41.8099 26.4003 41.9071 26.4004 42.0088C26.4004 42.0854 26.3775 42.1598 26.3359 42.2217L26.2881 42.2793C26.2179 42.3491 26.1221 42.388 26.0234 42.3867H0.970703C0.76961 42.3867 0.599609 42.2208 0.599609 42.0088V0.975586Z" fill="#010A1B" stroke="#010A1B" stroke-width="1.2"/>
<line x1="6.30923" y1="14.75" x2="20.8092" y2="14.75" stroke="#010A1B" stroke-width="2.5" stroke-linecap="round"/>
<line x1="6.30923" y1="21.75" x2="26.8092" y2="21.75" stroke="#010A1B" stroke-width="2.5" stroke-linecap="round"/>
<line x1="6.30923" y1="28.75" x2="26.8092" y2="28.75" stroke="#010A1B" stroke-width="2.5" stroke-linecap="round"/>
</svg>
