<svg width="37" height="37" viewBox="0 0 37 37" fill="none" xmlns="http://www.w3.org/2000/svg">
<rect width="37" height="37" rx="12" fill="#FF4E51"/>
<path fill-rule="evenodd" clip-rule="evenodd" d="M18.3894 13.012C18.6127 12.963 18.8432 13.0685 18.9068 13.2488L18.9939 13.4959C19.117 13.3457 19.3645 13.2978 19.5588 13.3894L23.1973 15.1037C23.2952 15.1498 23.3662 15.2258 23.3944 15.3147C23.4034 15.3428 23.4078 15.3716 23.4078 15.4001H23.5769C23.6948 15.4001 23.8073 15.44 23.8874 15.51C23.9676 15.5801 24.0079 15.6741 23.9987 15.7693L23.1526 24.6834C23.1357 24.8621 22.952 25 22.7307 25H14.2692C14.0482 25 13.8643 24.8621 13.8474 24.6834L13.0013 15.7693C12.9921 15.6741 13.0326 15.5801 13.1126 15.51C13.1927 15.44 13.3052 15.4001 13.4231 15.4001H14.3922L14.0302 14.3246C14.0008 14.2368 14.0154 14.143 14.0713 14.064C14.1271 13.985 14.2195 13.9272 14.3278 13.9035L18.3894 13.012ZM15.2693 15.4001H18.7853L18.2079 13.7623L14.9582 14.4755L15.2693 15.4001ZM19.6653 15.4001H22.1429L19.4942 14.1522L19.312 14.3982L19.6653 15.4001ZM23.12 16.0859H13.8797L14.6609 24.3143H22.3388L23.12 16.0859Z" fill="#FFFAFA"/>
</svg>
