<svg width="100" height="100" viewBox="0 0 100 100" fill="none" xmlns="http://www.w3.org/2000/svg">
<circle cx="50" cy="50" r="48" fill="url(#paint0_radial_163_27)" stroke="white" stroke-width="4"/>
<path d="M50.2617 25C61.4857 25.0002 70.5234 34.2555 70.5234 45.5957C70.5234 51.3532 67.9572 56.4257 64.4121 61.1133C60.8874 65.7738 56.1883 70.3085 51.6885 74.8906C51.3125 75.2735 50.7983 75.4891 50.2617 75.4893C49.7251 75.4893 49.211 75.2734 48.835 74.8906C44.3352 70.3085 39.6361 65.7738 36.1113 61.1133C32.5661 56.4256 30 51.3534 30 45.5957C30.0001 34.2554 39.0376 25 50.2617 25ZM50.2617 34.8789C44.5724 34.8789 39.9609 39.4914 39.9609 45.1807C39.961 50.87 44.5725 55.4824 50.2617 55.4824C55.9508 55.4823 60.5624 50.8699 60.5625 45.1807C60.5625 39.4915 55.9509 34.879 50.2617 34.8789Z" fill="white"/>
<defs>
<radialGradient id="paint0_radial_163_27" cx="0" cy="0" r="1" gradientUnits="userSpaceOnUse" gradientTransform="translate(50 2.99999) rotate(90) scale(87)">
<stop stop-color="#7A9ED8"/>
<stop offset="1" stop-color="#010A1B"/>
</radialGradient>
</defs>
</svg>
