<svg width="788" height="460" viewBox="0 0 788 460" fill="none" xmlns="http://www.w3.org/2000/svg">
<mask id="mask0_108_11" style="mask-type:luminance" maskUnits="userSpaceOnUse" x="0" y="0" width="788" height="460">
<path d="M0 0H787.203V459.375H0V0Z" fill="white"/>
</mask>
<g mask="url(#mask0_108_11)">
<path fill-rule="evenodd" clip-rule="evenodd" d="M78.6406 229.672L131.087 283.431C200.491 354.512 293.713 393.673 393.619 393.673C493.497 393.673 586.712 354.514 656.119 283.402L708.566 229.672L656.119 175.919C586.716 104.837 493.494 65.6765 393.619 65.6765C293.711 65.6765 200.494 104.836 131.087 175.948L78.6406 229.672ZM393.625 459.281C275.906 459.281 166 413.102 84.125 329.264L9.33907 252.573C-3.09374 239.848 -3.09374 219.517 9.33907 206.784L84.125 130.13C165.992 46.2609 275.906 0.0827637 393.625 0.0827637C511.313 0.0827637 621.219 46.2625 703.094 130.1L777.873 206.784C790.306 219.516 790.306 239.847 777.873 252.573L703.094 329.228C621.222 413.103 511.313 459.281 393.625 459.281Z" fill="#8491A7"/>
</g>
<path fill-rule="evenodd" clip-rule="evenodd" d="M415.484 311.672C349.164 311.672 295.208 257.717 295.208 191.395C295.208 135.834 334.764 98.4749 393.609 98.4749C411.742 98.4749 426.409 113.166 426.409 131.275C426.409 149.378 411.743 164.075 393.609 164.075C360.809 164.075 360.809 183.917 360.809 191.394C360.809 221.539 385.339 246.069 415.484 246.069C457.666 246.069 492.011 211.73 492.011 169.548C492.011 112.248 445.398 65.6734 388.13 65.6734C369.991 65.6734 355.33 50.9762 355.33 32.8734C355.33 14.764 369.99 0.0733643 388.13 0.0733643C481.581 0.0733643 557.598 76.1046 557.598 169.542C557.598 247.898 493.872 311.662 415.478 311.662" fill="#8491A7"/>
</svg>
