<svg width="54" height="53" viewBox="0 0 54 53" fill="none" xmlns="http://www.w3.org/2000/svg">
<path d="M22.5001 13.75C25.9518 13.75 28.7501 10.9518 28.7501 7.5C28.7501 4.04822 25.9518 1.25 22.5001 1.25C19.0482 1.25 16.25 4.04822 16.25 7.5C16.25 10.9518 19.0482 13.75 22.5001 13.75Z" stroke="#010A1B" stroke-width="2.5" stroke-linecap="round" stroke-linejoin="round"/>
<path d="M39.5751 16.7499C42.3366 16.7499 44.5751 14.5113 44.5751 11.7499C44.5751 8.98845 42.3366 6.74988 39.5751 6.74988C36.8138 6.74988 34.5751 8.98845 34.5751 11.7499C34.5751 14.5113 36.8138 16.7499 39.5751 16.7499Z" stroke="#010A1B" stroke-width="2.5" stroke-linecap="round" stroke-linejoin="round"/>
<path d="M48.8251 26.75C50.8961 26.75 52.5751 25.071 52.5751 23C52.5751 20.9288 50.8961 19.2499 48.8251 19.2499C46.7541 19.2499 45.0751 20.9288 45.0751 23C45.0751 25.071 46.7541 26.75 48.8251 26.75Z" stroke="#010A1B" stroke-width="2.5" stroke-linecap="round" stroke-linejoin="round"/>
<path d="M6.25 21.75C9.01143 21.75 11.25 19.5113 11.25 16.7499C11.25 13.9885 9.01143 11.7499 6.25 11.7499C3.48857 11.7499 1.25 13.9885 1.25 16.7499C1.25 19.5113 3.48857 21.75 6.25 21.75Z" stroke="#010A1B" stroke-width="2.5" stroke-linecap="round" stroke-linejoin="round"/>
<path d="M26.75 17.25C36.4149 17.25 44.25 25.085 44.25 34.75C44.25 44.415 36.4149 52.25 26.75 52.25C17.0849 52.2499 9.25 44.4149 9.25 34.75C9.25 34.3601 9.26242 33.9733 9.28809 33.5898C9.92106 33.1208 10.2528 33.046 10.4385 33.0596C10.5913 33.0709 10.8591 33.1596 11.2969 33.5459C11.2657 33.9432 11.25 34.3447 11.25 34.75C11.25 43.3104 18.1895 50.2499 26.75 50.25C35.3103 50.25 42.25 43.3104 42.25 34.75C42.25 26.1896 35.3103 19.25 26.75 19.25C20.8412 19.25 15.705 22.5565 13.0898 27.4199C12.6205 27.4452 12.2864 27.3752 12.0361 27.2344C11.7804 27.0904 11.5545 26.8404 11.3643 26.4043C14.3283 20.9514 20.1069 17.25 26.75 17.25Z" fill="#010A1B"/>
<path d="M26.75 17.25L26.75 16.75L26.75 16.75L26.75 17.25ZM26.75 52.25L26.75 52.75H26.75V52.25ZM9.28809 33.5898L8.99042 33.1881C8.87256 33.2754 8.799 33.4101 8.7892 33.5565L9.28809 33.5898ZM10.4385 33.0596L10.4754 32.5609L10.4749 32.5609L10.4385 33.0596ZM11.2969 33.5459L11.7953 33.585C11.8076 33.4283 11.7456 33.275 11.6277 33.171L11.2969 33.5459ZM26.75 50.25L26.75 50.75H26.75V50.25ZM26.75 19.25L26.75 18.75L26.75 18.75L26.75 19.25ZM13.0898 27.4199L13.1167 27.9192C13.2909 27.9098 13.4476 27.8103 13.5302 27.6567L13.0898 27.4199ZM12.0361 27.2344L11.7909 27.6701L11.791 27.6701L12.0361 27.2344ZM11.3643 26.4043L10.925 26.1655C10.8513 26.301 10.8443 26.4628 10.9059 26.6042L11.3643 26.4043ZM26.75 17.25V17.75C36.1387 17.75 43.75 25.3612 43.75 34.75H44.25H44.75C44.75 24.8089 36.691 16.75 26.75 16.75V17.25ZM44.25 34.75H43.75C43.75 44.1388 36.1387 51.75 26.75 51.75V52.25V52.75C36.691 52.75 44.75 44.6911 44.75 34.75H44.25ZM26.75 52.25L26.75 51.75C17.3611 51.7499 9.75 44.1388 9.75 34.75H9.25H8.75C8.75 44.6911 16.8088 52.7499 26.75 52.75L26.75 52.25ZM9.25 34.75H9.75C9.75 34.3707 9.76209 33.995 9.78697 33.6232L9.28809 33.5898L8.7892 33.5565C8.76276 33.9515 8.75 34.3495 8.75 34.75H9.25ZM9.28809 33.5898L9.58575 33.9916C10.1911 33.5431 10.3997 33.5581 10.4021 33.5582L10.4385 33.0596L10.4749 32.5609C10.1059 32.5339 9.65103 32.6986 8.99042 33.1881L9.28809 33.5898ZM10.4385 33.0596L10.4015 33.5582C10.4019 33.5582 10.4117 33.5589 10.4325 33.5651C10.4537 33.5715 10.487 33.5837 10.5335 33.6074C10.6276 33.6555 10.7696 33.7474 10.966 33.9208L11.2969 33.5459L11.6277 33.171C11.1511 32.7505 10.783 32.5837 10.4754 32.5609L10.4385 33.0596ZM11.2969 33.5459L10.7984 33.5068C10.7662 33.9172 10.75 34.3318 10.75 34.75H11.25H11.75C11.75 34.3576 11.7652 33.9692 11.7953 33.585L11.2969 33.5459ZM11.25 34.75H10.75C10.75 43.5865 17.9134 50.7499 26.75 50.75L26.75 50.25L26.75 49.75C18.4656 49.7499 11.75 43.0342 11.75 34.75H11.25ZM26.75 50.25V50.75C35.5864 50.75 42.75 43.5865 42.75 34.75H42.25H41.75C41.75 43.0343 35.0341 49.75 26.75 49.75V50.25ZM42.25 34.75H42.75C42.75 25.9135 35.5864 18.75 26.75 18.75V19.25V19.75C35.0341 19.75 41.75 26.4657 41.75 34.75H42.25ZM26.75 19.25L26.75 18.75C20.6499 18.75 15.3483 22.1641 12.6495 27.1831L13.0898 27.4199L13.5302 27.6567C16.0618 22.9489 21.0325 19.75 26.75 19.75L26.75 19.25ZM13.0898 27.4199L13.063 26.9206C12.6531 26.9427 12.4225 26.8781 12.2813 26.7986L12.0361 27.2344L11.791 27.6701C12.1503 27.8723 12.5879 27.9477 13.1167 27.9192L13.0898 27.4199ZM12.0361 27.2344L12.2814 26.7986C12.1441 26.7214 11.9816 26.569 11.8226 26.2044L11.3643 26.4043L10.9059 26.6042C11.1273 27.1118 11.4166 27.4595 11.7909 27.6701L12.0361 27.2344ZM11.3643 26.4043L11.8036 26.6431C14.6836 21.3447 20.2974 17.75 26.75 17.75L26.75 17.25L26.75 16.75C19.9165 16.75 13.9731 20.5581 10.925 26.1655L11.3643 26.4043Z" fill="#010A1B"/>
</svg>
