<svg width="45" height="40" viewBox="0 0 45 40" fill="none" xmlns="http://www.w3.org/2000/svg">
<path d="M19.871 1.47852C21.0311 -0.492792 23.8828 -0.492832 25.0429 1.47852L44.495 34.5352C45.6716 36.535 44.2294 39.0565 41.9091 39.0566H3.00479C0.684389 39.0566 -0.757836 36.535 0.418854 34.5352L10.7685 16.9443C11.4866 16.8187 11.8006 16.8933 11.956 16.9834C12.0943 17.0638 12.3089 17.2748 12.5458 17.8691L2.14249 35.5498C1.75066 36.2164 2.23146 37.0566 3.00479 37.0566H41.9091C42.6823 37.0565 43.1631 36.2163 42.7714 35.5498L23.3192 2.49316C22.9326 1.83606 21.9813 1.83609 21.5946 2.49316L15.3095 13.1729C14.7061 13.2386 14.4358 13.1544 14.3095 13.0771C14.1584 12.9845 13.9347 12.7349 13.6942 11.9727L19.871 1.47852Z" fill="#010A1B"/>
</svg>
