<svg width="34" height="48" viewBox="0 0 34 48" fill="none" xmlns="http://www.w3.org/2000/svg">
<path d="M16.9206 0C7.572 0 0 7.5762 0 16.9206C0 20.7168 1.2498 24.2214 3.3612 27.0444L14.2146 45.8436C14.2776 45.9648 14.3406 46.0854 14.418 46.1964L14.442 46.2378L14.4486 46.2342C15.003 47.001 15.8952 47.5008 16.9296 47.5008C17.8632 47.5008 18.6768 47.076 19.2366 46.4214L19.2648 46.4376L19.3722 46.2516C19.5306 46.038 19.671 45.81 19.7724 45.5586L30.4056 27.1398C32.5608 24.3 33.8412 20.7606 33.8412 16.9206C33.8412 7.5762 26.2692 0 16.9206 0ZM16.7532 25.4988C12.147 25.4988 8.4162 21.7662 8.4162 17.1618C8.4162 12.558 12.147 8.8248 16.7532 8.8248C21.3594 8.8248 25.0902 12.558 25.0902 17.1618C25.0902 21.7656 21.3594 25.4988 16.7532 25.4988Z" fill="white"/>
</svg>
