<svg width="78" height="28" viewBox="0 0 78 28" fill="none" xmlns="http://www.w3.org/2000/svg">
<rect x="9" y="21" width="3" height="2" fill="#844306"/>
<path d="M11.5 21.0001H9.44136L6.00003 18.48L1.94802 15.5001C1.94802 15.0001 1.75933 15.748 1.75933 15.9286C1.75933 15.9696 1.39 16.8314 0.938601 17.8409C0.487199 18.8545 0.0891455 19.7942 0.0563163 19.9379C-0.0996227 20.5903 0.0727301 21.2921 0.520029 21.8214C0.688279 22.0225 6.06406 26.8197 6.31849 27.0002C6.4416 27.0823 6.67961 27.0864 6.79861 27.0002C6.85606 26.9592 7.22129 26.2821 7.73014 25.2562L8.57139 23.5778H10.4919H12.4083L13.229 25.2234C13.7748 26.319 14.0867 26.9018 14.1647 26.9674C14.3165 27.0987 14.5504 27.0987 14.7105 26.9756C15.1003 26.6678 20.3612 21.9733 20.5007 21.7968C20.9234 21.2921 21.0957 20.578 20.948 19.9461C20.9152 19.8106 20.5253 18.8873 20.0821 17.8942C19.4789 16.5482 19.2573 16.0148 19.2204 15.8014L18.948 15.0001L18.2601 15.8014C18.2601 15.8014 16.5563 17.2183 14.5563 18.7183L11.5 21.0001ZM5.49776 19.1705C7.05868 20.344 8.46283 21.5576 8.47104 21.5781C8.47925 21.5945 8.04713 22.302 7.448 23.5002C6.68061 25.0391 6.6192 22.8076 6.448 26.0002C6.448 26.0002 8.73143 21.7217 8.60422 21.5781C8.448 21.0002 3.89055 17.8735 3.948 17.5001C3.6115 18.251 3.97262 17.3646 3.948 17.5001C3.948 17.5001 2.34205 16.8478 2.37488 16.8478C2.39129 16.8478 3.79474 17.8901 5.49776 19.1705ZM11.7517 22.2646L11.9774 22.716H10.5001C9.68758 22.716 9.02279 22.7078 9.02279 22.6955C9.02279 22.6627 9.39622 21.9199 9.44136 21.8625C9.47419 21.8255 9.73683 21.8132 10.5042 21.8132H11.526L11.7517 22.2646Z" fill="white"/>
<path d="M3.82715 17.2922C5.86922 18.7265 7.95563 19.2717 11.043 19.1223H11.0449C12.1714 19.0711 12.8515 19.0136 13.4248 18.8918C13.9871 18.7724 14.4656 18.586 15.1807 18.2473L15.1826 18.2463C17.4222 17.2004 18.9763 15.6482 19.7549 13.9124C20.5301 12.1837 20.5514 10.2431 19.6797 8.36548C19.1276 7.2061 18.8915 6.08236 18.6855 3.58618C18.6096 2.72559 18.5083 1.91118 18.4111 1.30005C18.3707 1.04563 18.3303 0.831269 18.2949 0.665283C18.2703 0.676009 18.2429 0.685362 18.2148 0.698486C17.904 0.84376 17.4654 1.09752 16.9219 1.45142H16.9209C15.3622 2.49046 14.4144 3.09298 13.501 3.41821C12.566 3.7511 11.693 3.78637 10.3252 3.78638C8.98474 3.78638 8.18667 3.77833 7.33496 3.48364C6.50602 3.19681 5.64047 2.64292 4.11328 1.65845L4.10645 1.65259C3.58094 1.30011 3.18426 1.03805 2.87988 0.848877C2.65475 0.708963 2.49513 0.619477 2.38184 0.564697C2.37436 0.606068 2.36371 0.666655 2.35156 0.750244C2.32601 0.926112 2.29664 1.16179 2.2666 1.44165C2.2366 1.72117 2.20647 2.04172 2.17676 2.38599L2.09277 3.47388C1.96267 5.68188 1.75077 6.76116 1.16309 8.25708L1.16113 8.26099C0.427723 10.0825 0.318627 11.7838 0.764648 13.2932C1.21071 14.8026 2.22622 16.1679 3.82715 17.2922Z" stroke="white"/>
<rect x="49.3708" y="13" width="20" height="12" fill="#844306"/>
<path d="M30.3068 4.08C30.4828 4.168 30.5828 4.304 30.6069 4.488C30.6389 4.672 30.5949 4.84 30.4748 4.992C30.3868 5.112 30.2708 5.18 30.1268 5.196C29.9908 5.212 29.8548 5.184 29.7189 5.112C29.4868 4.992 29.2428 4.896 28.9868 4.824C28.7308 4.752 28.4588 4.716 28.1708 4.716C27.7148 4.716 27.3028 4.792 26.9348 4.944C26.5748 5.088 26.2628 5.3 25.9988 5.58C25.7348 5.852 25.5308 6.176 25.3868 6.552C25.2508 6.928 25.1828 7.344 25.1828 7.8C25.1828 8.304 25.2588 8.752 25.4108 9.144C25.5628 9.528 25.7708 9.856 26.0348 10.128C26.3068 10.392 26.6228 10.592 26.9828 10.728C27.3508 10.856 27.7468 10.92 28.1708 10.92C28.4428 10.92 28.7068 10.888 28.9628 10.824C29.2268 10.76 29.4748 10.664 29.7068 10.536C29.8508 10.464 29.9908 10.44 30.1268 10.464C30.2708 10.48 30.3868 10.548 30.4748 10.668C30.6108 10.836 30.6588 11.008 30.6188 11.184C30.5868 11.352 30.4869 11.48 30.3189 11.568C30.1188 11.68 29.8988 11.776 29.6589 11.856C29.4188 11.936 29.1748 12 28.9268 12.048C28.6788 12.096 28.4268 12.12 28.1708 12.12C27.5948 12.12 27.0508 12.024 26.5388 11.832C26.0268 11.64 25.5708 11.36 25.1708 10.992C24.7708 10.624 24.4548 10.172 24.2228 9.636C23.9988 9.1 23.8868 8.488 23.8868 7.8C23.8868 7.184 23.9908 6.616 24.1988 6.096C24.4148 5.568 24.7148 5.116 25.0988 4.74C25.4908 4.356 25.9468 4.06 26.4668 3.852C26.9868 3.636 27.5548 3.528 28.1708 3.528C28.5548 3.528 28.9268 3.576 29.2868 3.672C29.6549 3.768 29.9948 3.904 30.3068 4.08ZM36.6518 5.592C36.8278 5.592 36.9718 5.652 37.0838 5.772C37.1958 5.884 37.2518 6.028 37.2518 6.204V11.388C37.2518 11.564 37.1958 11.712 37.0838 11.832C36.9718 11.944 36.8278 12 36.6518 12C36.4838 12 36.3398 11.944 36.2198 11.832C36.1078 11.712 36.0518 11.564 36.0518 11.388V10.524L36.3038 10.56C36.3038 10.704 36.2438 10.864 36.1238 11.04C36.0118 11.216 35.8558 11.388 35.6558 11.556C35.4558 11.716 35.2198 11.852 34.9478 11.964C34.6758 12.068 34.3838 12.12 34.0718 12.12C33.5198 12.12 33.0238 11.98 32.5838 11.7C32.1438 11.412 31.7958 11.02 31.5398 10.524C31.2838 10.028 31.1558 9.464 31.1558 8.832C31.1558 8.184 31.2838 7.616 31.5398 7.128C31.7958 6.632 32.1398 6.244 32.5718 5.964C33.0118 5.684 33.4998 5.544 34.0358 5.544C34.3798 5.544 34.6958 5.6 34.9838 5.712C35.2798 5.824 35.5358 5.968 35.7518 6.144C35.9678 6.32 36.1318 6.508 36.2438 6.708C36.3638 6.9 36.4238 7.084 36.4238 7.26L36.0518 7.296V6.204C36.0518 6.036 36.1078 5.892 36.2198 5.772C36.3398 5.652 36.4838 5.592 36.6518 5.592ZM34.2038 11.016C34.5798 11.016 34.9118 10.92 35.1998 10.728C35.4878 10.536 35.7118 10.276 35.8718 9.948C36.0318 9.612 36.1118 9.24 36.1118 8.832C36.1118 8.416 36.0318 8.044 35.8718 7.716C35.7118 7.388 35.4878 7.128 35.1998 6.936C34.9118 6.744 34.5798 6.648 34.2038 6.648C33.8358 6.648 33.5078 6.744 33.2198 6.936C32.9398 7.128 32.7158 7.388 32.5478 7.716C32.3878 8.044 32.3078 8.416 32.3078 8.832C32.3078 9.24 32.3878 9.612 32.5478 9.948C32.7158 10.276 32.9398 10.536 33.2198 10.728C33.5078 10.92 33.8358 11.016 34.2038 11.016ZM43.7449 3.12C43.9209 3.12 44.0649 3.176 44.1769 3.288C44.2889 3.4 44.3449 3.548 44.3449 3.732V11.388C44.3449 11.564 44.2889 11.712 44.1769 11.832C44.0649 11.944 43.9209 12 43.7449 12C43.5769 12 43.4329 11.944 43.3129 11.832C43.2009 11.712 43.1449 11.564 43.1449 11.388V10.524L43.3969 10.536C43.3969 10.68 43.3369 10.844 43.2169 11.028C43.1049 11.204 42.9489 11.376 42.7489 11.544C42.5489 11.712 42.3129 11.852 42.0409 11.964C41.7689 12.068 41.4769 12.12 41.1649 12.12C40.6129 12.12 40.1169 11.98 39.6769 11.7C39.2369 11.412 38.8889 11.024 38.6329 10.536C38.3769 10.04 38.2489 9.472 38.2489 8.832C38.2489 8.192 38.3769 7.628 38.6329 7.14C38.8889 6.644 39.2329 6.256 39.6649 5.976C40.1049 5.688 40.5929 5.544 41.1289 5.544C41.4649 5.544 41.7769 5.6 42.0649 5.712C42.3609 5.824 42.6169 5.968 42.8329 6.144C43.0489 6.32 43.2169 6.508 43.3369 6.708C43.4569 6.9 43.5169 7.084 43.5169 7.26L43.1449 7.296V3.732C43.1449 3.556 43.2009 3.412 43.3129 3.3C43.4329 3.18 43.5769 3.12 43.7449 3.12ZM41.2969 11.016C41.6809 11.016 42.0129 10.92 42.2929 10.728C42.5809 10.536 42.8049 10.276 42.9649 9.948C43.1249 9.62 43.2049 9.248 43.2049 8.832C43.2049 8.416 43.1249 8.044 42.9649 7.716C42.8049 7.388 42.5809 7.128 42.2929 6.936C42.0049 6.744 41.6729 6.648 41.2969 6.648C40.9289 6.648 40.6009 6.744 40.3129 6.936C40.0329 7.128 39.8089 7.388 39.6409 7.716C39.4809 8.044 39.4009 8.416 39.4009 8.832C39.4009 9.248 39.4809 9.62 39.6409 9.948C39.8089 10.276 40.0329 10.536 40.3129 10.728C40.6009 10.92 40.9289 11.016 41.2969 11.016ZM48.606 12.12C47.942 12.12 47.366 11.984 46.878 11.712C46.39 11.432 46.01 11.052 45.738 10.572C45.474 10.084 45.342 9.528 45.342 8.904C45.342 8.2 45.482 7.6 45.762 7.104C46.05 6.6 46.422 6.216 46.878 5.952C47.334 5.68 47.818 5.544 48.33 5.544C48.722 5.544 49.094 5.624 49.446 5.784C49.798 5.936 50.11 6.152 50.382 6.432C50.662 6.704 50.882 7.028 51.042 7.404C51.202 7.772 51.286 8.176 51.294 8.616C51.286 8.776 51.222 8.908 51.102 9.012C50.982 9.116 50.842 9.168 50.682 9.168H46.014L45.726 8.148H50.238L50.01 8.364V8.064C49.994 7.784 49.902 7.54 49.734 7.332C49.566 7.116 49.358 6.952 49.11 6.84C48.862 6.72 48.602 6.66 48.33 6.66C48.09 6.66 47.858 6.7 47.634 6.78C47.418 6.852 47.222 6.972 47.046 7.14C46.878 7.308 46.742 7.532 46.638 7.812C46.542 8.084 46.494 8.424 46.494 8.832C46.494 9.272 46.586 9.656 46.77 9.984C46.954 10.312 47.202 10.568 47.514 10.752C47.826 10.928 48.17 11.016 48.546 11.016C48.842 11.016 49.086 10.988 49.278 10.932C49.47 10.868 49.63 10.792 49.758 10.704C49.886 10.616 49.998 10.532 50.094 10.452C50.214 10.38 50.334 10.344 50.454 10.344C50.598 10.344 50.718 10.396 50.814 10.5C50.91 10.596 50.958 10.712 50.958 10.848C50.958 11.024 50.87 11.184 50.694 11.328C50.478 11.536 50.178 11.72 49.794 11.88C49.418 12.04 49.022 12.12 48.606 12.12ZM48.534 3.864L47.574 4.668C47.486 4.74 47.41 4.8 47.346 4.848C47.29 4.888 47.202 4.908 47.082 4.908C46.994 4.908 46.918 4.884 46.854 4.836C46.798 4.78 46.77 4.716 46.77 4.644C46.77 4.596 46.778 4.548 46.794 4.5C46.81 4.452 46.846 4.396 46.902 4.332L47.586 3.516C47.738 3.316 47.942 3.216 48.198 3.216H48.558C48.694 3.216 48.802 3.24 48.882 3.288C48.962 3.328 49.038 3.404 49.11 3.516L49.758 4.332C49.806 4.396 49.838 4.452 49.854 4.5C49.87 4.54 49.878 4.588 49.878 4.644C49.878 4.716 49.85 4.78 49.794 4.836C49.738 4.884 49.666 4.908 49.578 4.908C49.45 4.908 49.358 4.888 49.302 4.848C49.246 4.8 49.17 4.736 49.074 4.656L48.042 3.78L48.534 3.864ZM27.3788 16.58C27.9708 16.58 28.4268 16.728 28.7468 17.024C29.0668 17.312 29.2789 17.704 29.3829 18.2L29.1908 18.14L29.2748 17.948C29.3788 17.74 29.5348 17.532 29.7428 17.324C29.9588 17.108 30.2148 16.932 30.5108 16.796C30.8068 16.652 31.1228 16.58 31.4588 16.58C32.0108 16.58 32.4388 16.7 32.7428 16.94C33.0469 17.172 33.2589 17.488 33.3789 17.888C33.4989 18.28 33.5589 18.72 33.5589 19.208V22.388C33.5589 22.564 33.5029 22.712 33.3909 22.832C33.2789 22.944 33.1349 23 32.9588 23C32.7909 23 32.6469 22.944 32.5268 22.832C32.4148 22.712 32.3588 22.564 32.3588 22.388V19.22C32.3588 18.94 32.3188 18.684 32.2388 18.452C32.1668 18.22 32.0348 18.036 31.8428 17.9C31.6588 17.756 31.4028 17.684 31.0748 17.684C30.7629 17.684 30.4829 17.756 30.2348 17.9C29.9949 18.036 29.8069 18.22 29.6709 18.452C29.5348 18.684 29.4668 18.94 29.4668 19.22V22.388C29.4668 22.564 29.4108 22.712 29.2988 22.832C29.1868 22.944 29.0428 23 28.8669 23C28.6908 23 28.5468 22.944 28.4348 22.832C28.3228 22.712 28.2668 22.564 28.2668 22.388V19.208C28.2668 18.928 28.2268 18.672 28.1468 18.44C28.0748 18.208 27.9468 18.024 27.7628 17.888C27.5788 17.752 27.3228 17.684 26.9948 17.684C26.6828 17.684 26.4068 17.752 26.1668 17.888C25.9268 18.024 25.7388 18.208 25.6028 18.44C25.4748 18.672 25.4108 18.928 25.4108 19.208V22.388C25.4108 22.564 25.3508 22.712 25.2308 22.832C25.1188 22.944 24.9788 23 24.8108 23C24.6348 23 24.4908 22.944 24.3788 22.832C24.2668 22.712 24.2108 22.564 24.2108 22.388V17.3C24.2108 17.124 24.2668 16.98 24.3788 16.868C24.4908 16.748 24.6348 16.688 24.8108 16.688C24.9788 16.688 25.1188 16.748 25.2308 16.868C25.3508 16.98 25.4108 17.124 25.4108 17.3V18.008L25.1828 18.14C25.2388 17.964 25.3308 17.784 25.4588 17.6C25.5868 17.416 25.7468 17.248 25.9388 17.096C26.1388 16.944 26.3588 16.82 26.5988 16.724C26.8388 16.628 27.0988 16.58 27.3788 16.58ZM37.8182 23.12C37.1542 23.12 36.5782 22.984 36.0902 22.712C35.6022 22.432 35.2222 22.052 34.9502 21.572C34.6862 21.084 34.5542 20.528 34.5542 19.904C34.5542 19.2 34.6942 18.6 34.9742 18.104C35.2622 17.6 35.6342 17.216 36.0902 16.952C36.5462 16.68 37.0302 16.544 37.5422 16.544C37.9342 16.544 38.3062 16.624 38.6582 16.784C39.0102 16.936 39.3222 17.152 39.5942 17.432C39.8742 17.704 40.0942 18.028 40.2542 18.404C40.4142 18.772 40.4982 19.176 40.5062 19.616C40.4982 19.776 40.4342 19.908 40.3142 20.012C40.1942 20.116 40.0542 20.168 39.8942 20.168H35.2262L34.9382 19.148H39.4502L39.2222 19.364V19.064C39.2062 18.784 39.1142 18.54 38.9462 18.332C38.7782 18.116 38.5702 17.952 38.3222 17.84C38.0742 17.72 37.8142 17.66 37.5422 17.66C37.3022 17.66 37.0702 17.7 36.8462 17.78C36.6302 17.852 36.4342 17.972 36.2582 18.14C36.0902 18.308 35.9542 18.532 35.8502 18.812C35.7542 19.084 35.7062 19.424 35.7062 19.832C35.7062 20.272 35.7982 20.656 35.9822 20.984C36.1662 21.312 36.4142 21.568 36.7262 21.752C37.0382 21.928 37.3822 22.016 37.7582 22.016C38.0542 22.016 38.2982 21.988 38.4902 21.932C38.6822 21.868 38.8422 21.792 38.9702 21.704C39.0982 21.616 39.2102 21.532 39.3062 21.452C39.4262 21.38 39.5462 21.344 39.6662 21.344C39.8102 21.344 39.9302 21.396 40.0262 21.5C40.1222 21.596 40.1702 21.712 40.1702 21.848C40.1702 22.024 40.0822 22.184 39.9062 22.328C39.6902 22.536 39.3902 22.72 39.0062 22.88C38.6302 23.04 38.2342 23.12 37.8182 23.12ZM46.2066 16.688C46.3746 16.688 46.5146 16.748 46.6266 16.868C46.7466 16.98 46.8066 17.124 46.8066 17.3V20.456C46.8066 21.288 46.5746 21.94 46.1106 22.412C45.6466 22.876 44.9906 23.108 44.1426 23.108C43.3026 23.108 42.6506 22.876 42.1866 22.412C41.7306 21.94 41.5026 21.288 41.5026 20.456V17.3C41.5026 17.124 41.5586 16.98 41.6706 16.868C41.7826 16.748 41.9266 16.688 42.1026 16.688C42.2706 16.688 42.4106 16.748 42.5226 16.868C42.6426 16.98 42.7026 17.124 42.7026 17.3V20.456C42.7026 20.976 42.8226 21.364 43.0626 21.62C43.3106 21.876 43.6706 22.004 44.1426 22.004C44.6226 22.004 44.9866 21.876 45.2346 21.62C45.4826 21.364 45.6066 20.976 45.6066 20.456V17.3C45.6066 17.124 45.6626 16.98 45.7746 16.868C45.8866 16.748 46.0306 16.688 46.2066 16.688ZM54.6231 14.6C55.0391 14.6 55.4271 14.72 55.7871 14.96C56.1551 15.2 56.4511 15.524 56.6751 15.932C56.8991 16.34 57.0111 16.796 57.0111 17.3C57.0111 17.796 56.8991 18.248 56.6751 18.656C56.4511 19.064 56.1551 19.392 55.7871 19.64C55.4271 19.88 55.0391 20 54.6231 20H52.4151L52.5351 19.784V22.268C52.5351 22.476 52.4711 22.652 52.3431 22.796C52.2151 22.932 52.0471 23 51.8391 23C51.6391 23 51.4751 22.932 51.3471 22.796C51.2191 22.652 51.1551 22.476 51.1551 22.268V15.332C51.1551 15.124 51.2231 14.952 51.3591 14.816C51.5031 14.672 51.6791 14.6 51.8871 14.6H54.6231ZM54.6231 18.632C54.7751 18.632 54.9231 18.568 55.0671 18.44C55.2111 18.312 55.3311 18.148 55.4271 17.948C55.5231 17.74 55.5711 17.524 55.5711 17.3C55.5711 17.068 55.5231 16.852 55.4271 16.652C55.3311 16.452 55.2111 16.292 55.0671 16.172C54.9231 16.044 54.7751 15.98 54.6231 15.98H52.3911L52.5351 15.764V18.824L52.4031 18.632H54.6231ZM60.8124 23.12C60.1324 23.12 59.5404 22.98 59.0364 22.7C58.5404 22.412 58.1564 22.024 57.8844 21.536C57.6204 21.048 57.4884 20.496 57.4884 19.88C57.4884 19.16 57.6324 18.548 57.9204 18.044C58.2164 17.532 58.6004 17.14 59.0724 16.868C59.5444 16.596 60.0444 16.46 60.5724 16.46C60.9804 16.46 61.3644 16.544 61.7244 16.712C62.0924 16.88 62.4164 17.112 62.6964 17.408C62.9764 17.696 63.1964 18.032 63.3564 18.416C63.5244 18.8 63.6084 19.208 63.6084 19.64C63.6004 19.832 63.5244 19.988 63.3804 20.108C63.2364 20.228 63.0684 20.288 62.8764 20.288H58.2924L57.9324 19.088H62.3364L62.0724 19.328V19.004C62.0564 18.772 61.9724 18.564 61.8204 18.38C61.6764 18.196 61.4924 18.052 61.2684 17.948C61.0524 17.836 60.8204 17.78 60.5724 17.78C60.3324 17.78 60.1084 17.812 59.9004 17.876C59.6924 17.94 59.5124 18.048 59.3604 18.2C59.2084 18.352 59.0884 18.556 59.0004 18.812C58.9124 19.068 58.8684 19.392 58.8684 19.784C58.8684 20.216 58.9564 20.584 59.1324 20.888C59.3164 21.184 59.5484 21.412 59.8284 21.572C60.1164 21.724 60.4204 21.8 60.7404 21.8C61.0364 21.8 61.2724 21.776 61.4484 21.728C61.6244 21.68 61.7644 21.624 61.8684 21.56C61.9804 21.488 62.0804 21.428 62.1684 21.38C62.3124 21.308 62.4484 21.272 62.5764 21.272C62.7524 21.272 62.8964 21.332 63.0084 21.452C63.1284 21.572 63.1884 21.712 63.1884 21.872C63.1884 22.088 63.0764 22.284 62.8524 22.46C62.6444 22.636 62.3524 22.792 61.9764 22.928C61.6004 23.056 61.2124 23.12 60.8124 23.12ZM64.5785 16.7H67.4225C67.6145 16.7 67.7745 16.764 67.9025 16.892C68.0305 17.02 68.0945 17.18 68.0945 17.372C68.0945 17.556 68.0305 17.712 67.9025 17.84C67.7745 17.96 67.6145 18.02 67.4225 18.02H64.5785C64.3865 18.02 64.2265 17.956 64.0985 17.828C63.9705 17.7 63.9065 17.54 63.9065 17.348C63.9065 17.164 63.9705 17.012 64.0985 16.892C64.2265 16.764 64.3865 16.7 64.5785 16.7ZM65.8625 15.2C66.0705 15.2 66.2385 15.272 66.3665 15.416C66.5025 15.552 66.5705 15.724 66.5705 15.932V21.272C66.5705 21.384 66.5905 21.476 66.6305 21.548C66.6785 21.62 66.7385 21.672 66.8105 21.704C66.8905 21.736 66.9745 21.752 67.0625 21.752C67.1585 21.752 67.2465 21.736 67.3265 21.704C67.4065 21.664 67.4985 21.644 67.6025 21.644C67.7145 21.644 67.8145 21.696 67.9025 21.8C67.9985 21.904 68.0465 22.048 68.0465 22.232C68.0465 22.456 67.9225 22.64 67.6745 22.784C67.4345 22.928 67.1745 23 66.8945 23C66.7265 23 66.5385 22.988 66.3305 22.964C66.1305 22.932 65.9385 22.864 65.7545 22.76C65.5785 22.648 65.4305 22.48 65.3105 22.256C65.1905 22.032 65.1305 21.724 65.1305 21.332V15.932C65.1305 15.724 65.1985 15.552 65.3345 15.416C65.4785 15.272 65.6545 15.2 65.8625 15.2Z" fill="white"/>
<path d="M72.4228 19.124C72.4228 18.956 72.4788 18.812 72.5908 18.692C72.7108 18.572 72.8548 18.512 73.0228 18.512C73.3668 18.504 73.6748 18.44 73.9468 18.32C74.2188 18.2 74.4348 18.02 74.5948 17.78C74.7548 17.54 74.8348 17.24 74.8348 16.88C74.8348 16.568 74.7628 16.3 74.6188 16.076C74.4828 15.844 74.2948 15.664 74.0548 15.536C73.8148 15.4 73.5428 15.332 73.2388 15.332C72.9748 15.332 72.7308 15.384 72.5068 15.488C72.2828 15.592 72.0828 15.728 71.9068 15.896C71.8028 15.992 71.6748 16.064 71.5228 16.112C71.3788 16.152 71.2308 16.116 71.0788 16.004C70.9188 15.892 70.8308 15.752 70.8148 15.584C70.7988 15.416 70.8588 15.26 70.9948 15.116C71.2668 14.812 71.5988 14.572 71.9908 14.396C72.3828 14.22 72.7988 14.132 73.2388 14.132C73.7588 14.132 74.2308 14.252 74.6548 14.492C75.0788 14.732 75.4148 15.056 75.6628 15.464C75.9108 15.872 76.0349 16.344 76.0349 16.88C76.0349 17.248 75.9748 17.584 75.8548 17.888C75.7348 18.192 75.5628 18.456 75.3389 18.68C75.1148 18.904 74.8548 19.084 74.5588 19.22C74.2708 19.356 73.9548 19.444 73.6108 19.484C73.5948 19.492 73.5868 19.496 73.5868 19.496C73.5948 19.496 73.6068 19.496 73.6228 19.496V20.216C73.6228 20.384 73.5628 20.528 73.4428 20.648C73.3308 20.76 73.1908 20.816 73.0228 20.816C72.8468 20.816 72.7028 20.76 72.5908 20.648C72.4788 20.528 72.4228 20.384 72.4228 20.216V19.124ZM72.9868 23C72.7868 23 72.6308 22.944 72.5188 22.832C72.4148 22.72 72.3628 22.564 72.3628 22.364V22.148C72.3628 21.94 72.4148 21.784 72.5188 21.68C72.6308 21.568 72.7868 21.512 72.9868 21.512H73.1068C73.3148 21.512 73.4708 21.568 73.5748 21.68C73.6788 21.784 73.7308 21.94 73.7308 22.148V22.364C73.7308 22.564 73.6788 22.72 73.5748 22.832C73.4708 22.944 73.3148 23 73.1068 23H72.9868Z" fill="white"/>
</svg>
